<?xml version="1.0" encoding="UTF-8"?>
<svg id="Layer_2" xmlns="http://www.w3.org/2000/svg" version="1.1" viewBox="0 0 1115.5 26.8">
  <!-- Generator: Adobe Illustrator 29.0.1, SVG Export Plug-In . SVG Version: 2.1.0 Build 192)  -->
  <defs>
    <style>
      .st0 {
        fill: #d2ad2a;
      }
    </style>
  </defs>
  <g id="Layer_1-2">
    <g>
      <polygon class="st0" points=".4 26.8 0 0 19.3 0 .4 26.8"/>
      <polygon class="st0" points="24.2 0 43.2 26.8 5.3 26.8 24.2 0"/>
      <polygon class="st0" points="47.8 26.8 28.8 0 66.8 0 47.8 26.8"/>
      <polygon class="st0" points="71.7 0 90.6 26.8 52.7 26.8 71.7 0"/>
      <polygon class="st0" points="95.2 26.8 76.3 0 114.2 0 95.2 26.8"/>
      <polygon class="st0" points="119.1 0 138.1 26.8 100.1 26.8 119.1 0"/>
      <polygon class="st0" points="142.7 26.8 123.7 0 161.6 0 142.7 26.8"/>
      <polygon class="st0" points="166.5 0 185.5 26.8 147.6 26.8 166.5 0"/>
      <polygon class="st0" points="190.1 26.8 171.1 0 209 0 190.1 26.8"/>
      <polygon class="st0" points="214 0 232.9 26.8 195 26.8 214 0"/>
      <polygon class="st0" points="237.5 26.8 218.6 0 256.5 0 237.5 26.8"/>
      <polygon class="st0" points="261.4 0 280.3 26.8 242.4 26.8 261.4 0"/>
      <polygon class="st0" points="284.9 26.8 266 0 303.9 0 284.9 26.8"/>
      <polygon class="st0" points="308.8 0 327.8 26.8 289.8 26.8 308.8 0"/>
      <polygon class="st0" points="332.4 26.8 313.4 0 351.3 0 332.4 26.8"/>
      <polygon class="st0" points="356.2 0 375.2 26.8 337.3 26.8 356.2 0"/>
      <polygon class="st0" points="379.8 26.8 360.8 0 398.8 0 379.8 26.8"/>
      <polygon class="st0" points="403.7 0 422.6 26.8 384.7 26.8 403.7 0"/>
      <polygon class="st0" points="427.2 26.8 408.3 0 446.2 0 427.2 26.8"/>
      <polygon class="st0" points="451.1 0 470 26.8 432.1 26.8 451.1 0"/>
      <polygon class="st0" points="474.7 26.8 455.7 0 493.6 0 474.7 26.8"/>
      <polygon class="st0" points="498.5 0 517.5 26.8 479.6 26.8 498.5 0"/>
      <polygon class="st0" points="522.1 26.8 503.1 0 541 0 522.1 26.8"/>
      <polygon class="st0" points="545.9 0 564.9 26.8 527 26.8 545.9 0"/>
      <polygon class="st0" points="569.5 26.8 550.5 0 588.5 0 569.5 26.8"/>
      <polygon class="st0" points="593.4 0 612.3 26.8 574.4 26.8 593.4 0"/>
      <polygon class="st0" points="616.9 26.8 598 0 635.9 0 616.9 26.8"/>
      <polygon class="st0" points="640.8 0 659.8 26.8 621.8 26.8 640.8 0"/>
      <polygon class="st0" points="664.4 26.8 645.4 0 683.3 0 664.4 26.8"/>
      <polygon class="st0" points="688.2 0 707.2 26.8 669.3 26.8 688.2 0"/>
      <polygon class="st0" points="711.8 26.8 692.8 0 730.7 0 711.8 26.8"/>
      <polygon class="st0" points="735.7 0 754.6 26.8 716.7 26.8 735.7 0"/>
      <polygon class="st0" points="759.2 26.8 740.3 0 778.2 0 759.2 26.8"/>
      <polygon class="st0" points="783.1 0 802 26.8 764.1 26.8 783.1 0"/>
      <polygon class="st0" points="806.6 26.8 787.7 0 825.6 0 806.6 26.8"/>
      <polygon class="st0" points="830.5 0 849.5 26.8 811.6 26.8 830.5 0"/>
      <polygon class="st0" points="854.1 26.8 835.1 0 873 0 854.1 26.8"/>
      <polygon class="st0" points="877.9 0 896.9 26.8 859 26.8 877.9 0"/>
      <polygon class="st0" points="901.5 26.8 882.5 0 920.5 0 901.5 26.8"/>
      <polygon class="st0" points="925.4 0 944.3 26.8 906.4 26.8 925.4 0"/>
      <polygon class="st0" points="948.9 26.8 930 0 967.9 0 948.9 26.8"/>
      <polygon class="st0" points="972.8 0 991.8 26.8 953.8 26.8 972.8 0"/>
      <polygon class="st0" points="996.4 26.8 977.4 0 1015.3 0 996.4 26.8"/>
      <polygon class="st0" points="1020.2 0 1039.2 26.8 1001.3 26.8 1020.2 0"/>
      <polygon class="st0" points="1043.8 26.8 1024.8 0 1062.7 0 1043.8 26.8"/>
      <polygon class="st0" points="1067.7 0 1086.6 26.8 1048.7 26.8 1067.7 0"/>
      <polygon class="st0" points="1091.2 26.8 1072.3 0 1110.2 0 1091.2 26.8"/>
      <polygon class="st0" points="1115.1 0 1115 26.8 1096.1 26.8 1115.1 0"/>
    </g>
  </g>
</svg>