<?xml version="1.0" encoding="UTF-8"?>
<svg id="Layer_2" data-name="Layer 2" xmlns="http://www.w3.org/2000/svg" viewBox="0 0 1152.62 26.76">
  <defs>
    <style>
      .cls-1 {
        fill: #d2ad2a;
      }
    </style>
  </defs>
  <g id="Layer_1-2" data-name="Layer 1">
    <g>
      <polygon class="cls-1" points="18.96 26.75 0 0 37.92 0 18.96 26.75"/>
      <polygon class="cls-1" points="42.83 .01 61.78 26.76 23.87 26.76 42.83 .01"/>
      <polygon class="cls-1" points="66.39 26.75 47.43 0 85.34 0 66.39 26.75"/>
      <polygon class="cls-1" points="90.25 .01 109.21 26.76 71.29 26.76 90.25 .01"/>
      <polygon class="cls-1" points="113.81 26.75 94.86 0 132.77 0 113.81 26.75"/>
      <polygon class="cls-1" points="137.68 .01 156.64 26.76 118.72 26.76 137.68 .01"/>
      <polygon class="cls-1" points="161.24 26.75 142.28 0 180.2 0 161.24 26.75"/>
      <polygon class="cls-1" points="185.11 .01 204.07 26.76 166.15 26.76 185.11 .01"/>
      <polygon class="cls-1" points="208.67 26.75 189.71 0 227.63 0 208.67 26.75"/>
      <polygon class="cls-1" points="232.54 .01 251.5 26.76 213.58 26.76 232.54 .01"/>
      <polygon class="cls-1" points="256.1 26.75 237.14 0 275.06 0 256.1 26.75"/>
      <polygon class="cls-1" points="279.96 .01 298.92 26.76 261.01 26.76 279.96 .01"/>
      <polygon class="cls-1" points="303.53 26.75 284.57 0 322.48 0 303.53 26.75"/>
      <polygon class="cls-1" points="327.39 .01 346.35 26.76 308.43 26.76 327.39 .01"/>
      <polygon class="cls-1" points="350.95 26.75 332 0 369.91 0 350.95 26.75"/>
      <polygon class="cls-1" points="374.82 .01 393.78 26.76 355.86 26.76 374.82 .01"/>
      <polygon class="cls-1" points="398.38 26.75 379.42 0 417.34 0 398.38 26.75"/>
      <polygon class="cls-1" points="422.25 .01 441.21 26.76 403.29 26.76 422.25 .01"/>
      <polygon class="cls-1" points="445.81 26.75 426.85 0 464.77 0 445.81 26.75"/>
      <polygon class="cls-1" points="469.68 .01 488.63 26.76 450.72 26.76 469.68 .01"/>
      <polygon class="cls-1" points="493.24 26.75 474.28 0 512.2 0 493.24 26.75"/>
      <polygon class="cls-1" points="517.1 .01 536.06 26.76 498.15 26.76 517.1 .01"/>
      <polygon class="cls-1" points="540.66 26.75 521.71 0 559.62 0 540.66 26.75"/>
      <polygon class="cls-1" points="564.53 .01 583.49 26.76 545.57 26.76 564.53 .01"/>
      <polygon class="cls-1" points="588.09 26.75 569.13 0 607.05 0 588.09 26.75"/>
      <polygon class="cls-1" points="611.96 .01 630.92 26.76 593 26.76 611.96 .01"/>
      <polygon class="cls-1" points="635.52 26.75 616.56 0 654.48 0 635.52 26.75"/>
      <polygon class="cls-1" points="659.39 .01 678.35 26.76 640.43 26.76 659.39 .01"/>
      <polygon class="cls-1" points="682.95 26.75 663.99 0 701.91 0 682.95 26.75"/>
      <polygon class="cls-1" points="706.82 .01 725.77 26.76 687.86 26.76 706.82 .01"/>
      <polygon class="cls-1" points="730.38 26.75 711.42 0 749.33 0 730.38 26.75"/>
      <polygon class="cls-1" points="754.24 .01 773.2 26.76 735.28 26.76 754.24 .01"/>
      <polygon class="cls-1" points="777.8 26.75 758.85 0 796.76 0 777.8 26.75"/>
      <polygon class="cls-1" points="801.67 .01 820.63 26.76 782.71 26.76 801.67 .01"/>
      <polygon class="cls-1" points="825.23 26.75 806.27 0 844.19 0 825.23 26.75"/>
      <polygon class="cls-1" points="849.1 .01 868.06 26.76 830.14 26.76 849.1 .01"/>
      <polygon class="cls-1" points="872.66 26.75 853.7 0 891.62 0 872.66 26.75"/>
      <polygon class="cls-1" points="896.53 .01 915.49 26.76 877.57 26.76 896.53 .01"/>
      <polygon class="cls-1" points="920.09 26.75 901.13 0 939.05 0 920.09 26.75"/>
      <polygon class="cls-1" points="943.95 .01 962.91 26.76 925 26.76 943.95 .01"/>
      <polygon class="cls-1" points="967.52 26.75 948.56 0 986.47 0 967.52 26.75"/>
      <polygon class="cls-1" points="991.38 .01 1010.34 26.76 972.42 26.76 991.38 .01"/>
      <polygon class="cls-1" points="1014.94 26.75 995.99 0 1033.9 0 1014.94 26.75"/>
      <polygon class="cls-1" points="1038.81 .01 1057.77 26.76 1019.85 26.76 1038.81 .01"/>
      <polygon class="cls-1" points="1062.37 26.75 1043.41 0 1081.33 0 1062.37 26.75"/>
      <polygon class="cls-1" points="1086.24 .01 1105.2 26.76 1067.28 26.76 1086.24 .01"/>
      <polygon class="cls-1" points="1109.8 26.75 1090.84 0 1128.76 0 1109.8 26.75"/>
      <polygon class="cls-1" points="1133.67 .01 1152.62 26.76 1114.71 26.76 1133.67 .01"/>
    </g>
  </g>
</svg>