<?xml version="1.0" encoding="UTF-8"?>
<svg id="Layer_2" data-name="Layer 2" xmlns="http://www.w3.org/2000/svg" viewBox="0 0 157.67 49.68">
  <defs>
    <style>
      .cls-1 {
        fill: #d2ac2b;
      }

      .cls-2 {
        fill: #2a2a86;
      }
    </style>
  </defs>
  <g id="Layer_1-2" data-name="Layer 1">
    <g>
      <path class="cls-2" d="M51.65.54h4.25c2.25,0,3.97.45,5.13,1.36,1.17.91,1.75,2.21,1.75,3.91,0,.94-.23,1.8-.7,2.59-.47.79-1.15,1.42-2.05,1.9,1.48.48,2.6,1.2,3.37,2.16.77.96,1.15,2.09,1.15,3.41,0,1.78-.65,3.25-1.94,4.42-1.3,1.17-2.98,1.75-5.03,1.75h-5.93V.54ZM53.78,2.64v6.88h1.23c1.88,0,3.27-.3,4.19-.9.92-.6,1.38-1.54,1.38-2.81,0-2.11-1.44-3.17-4.31-3.17h-2.48ZM53.78,11.68v8.26h2.66c1.54,0,2.67-.15,3.4-.46.73-.31,1.32-.79,1.78-1.44.46-.65.69-1.31.69-1.99s-.13-1.28-.39-1.8c-.26-.52-.64-.98-1.15-1.38-.51-.4-1.12-.7-1.83-.9-.71-.2-2.03-.3-3.96-.3h-1.2Z"/>
      <path class="cls-2" d="M81.82,16.89l1.74.9c-1.72,3.19-4.25,4.79-7.6,4.79-2.39,0-4.37-.82-5.93-2.47-1.56-1.65-2.33-3.63-2.33-5.94s.78-4.3,2.35-5.96c1.57-1.66,3.5-2.49,5.81-2.49s4.24.77,5.81,2.31c1.57,1.54,2.38,3.63,2.44,6.29h-14.31c.06,1.92.66,3.46,1.81,4.62,1.15,1.17,2.54,1.75,4.18,1.75,2.69,0,4.71-1.27,6.05-3.8M81.82,12.55c-.28-1.52-.98-2.7-2.1-3.56-1.12-.86-2.4-1.29-3.86-1.29-2.99,0-4.95,1.62-5.87,4.85h11.82Z"/>
      <polygon class="cls-2" points="86.19 6.14 88.35 6.14 93.83 18.38 99.13 6.14 101.31 6.14 91.82 27.84 89.67 27.84 92.72 20.84 86.19 6.14"/>
      <path class="cls-2" d="M103.2,14.19c0-2.33.8-4.33,2.41-5.99,1.61-1.66,3.56-2.48,5.87-2.48s4.26.83,5.87,2.48c1.61,1.66,2.41,3.64,2.41,5.96s-.79,4.29-2.38,5.94c-1.59,1.65-3.55,2.47-5.88,2.47s-4.3-.82-5.9-2.47c-1.6-1.65-2.39-3.62-2.39-5.91M117.68,14.22c0-1.76-.61-3.28-1.84-4.56-1.23-1.29-2.68-1.93-4.37-1.93s-3.14.64-4.36,1.93c-1.22,1.29-1.83,2.82-1.83,4.6s.59,3.28,1.77,4.52,2.64,1.86,4.38,1.86,3.22-.62,4.43-1.87c1.21-1.25,1.81-2.76,1.81-4.54"/>
      <path class="cls-2" d="M123.55,6.14h2.07v2.84c1.64-2.17,3.62-3.26,5.96-3.26,1.2,0,2.27.32,3.23.97.96.65,1.64,1.5,2.03,2.54.4,1.05.6,2.59.6,4.62v8.17h-2.03v-7.57c0-1.86-.09-3.11-.26-3.77-.17-.66-.43-1.22-.78-1.68-.35-.46-.79-.81-1.33-1.05s-1.19-.36-1.96-.36-1.52.19-2.26.57c-.74.38-1.37.91-1.89,1.58-.52.68-.87,1.38-1.05,2.1-.18.72-.27,2.17-.27,4.34v5.84h-2.07V6.14Z"/>
      <path class="cls-2" d="M157.67,0v22.03h-2.01v-2.72c-1.82,2.18-3.9,3.26-6.24,3.26s-4.32-.83-5.91-2.49c-1.6-1.66-2.4-3.64-2.4-5.96s.81-4.3,2.42-5.94c1.62-1.65,3.55-2.47,5.81-2.47,2.59,0,4.7,1.11,6.32,3.32V0h2.01ZM155.79,14.19c0-1.81-.6-3.35-1.8-4.61-1.2-1.26-2.69-1.89-4.49-1.89s-3.3.64-4.51,1.93c-1.21,1.29-1.81,2.8-1.81,4.55s.62,3.27,1.86,4.57c1.24,1.3,2.7,1.94,4.39,1.94s3.17-.61,4.45-1.84c1.28-1.23,1.92-2.78,1.92-4.66"/>
      <polygon class="cls-2" points="50.64 47.98 53.69 26.48 54.02 26.48 62.76 44.11 71.44 26.48 71.77 26.48 74.85 47.98 72.73 47.98 70.63 32.59 63.03 47.98 62.49 47.98 54.8 32.47 52.7 47.98 50.64 47.98"/>
      <path class="cls-2" d="M94.61,32.08v15.9h-2.01v-2.72c-1.82,2.17-3.89,3.26-6.23,3.26s-4.31-.83-5.91-2.5c-1.61-1.67-2.41-3.65-2.41-5.96s.81-4.28,2.42-5.93c1.62-1.65,3.55-2.47,5.81-2.47,2.59,0,4.7,1.11,6.32,3.32v-2.9h2.01ZM92.72,40.1c0-1.81-.61-3.35-1.83-4.59-1.22-1.25-2.71-1.87-4.48-1.87s-3.26.64-4.47,1.93c-1.22,1.29-1.83,2.81-1.83,4.57s.62,3.28,1.86,4.56c1.24,1.29,2.72,1.93,4.44,1.93s3.21-.62,4.45-1.86c1.24-1.24,1.86-2.79,1.86-4.67"/>
      <path class="cls-2" d="M103.08,45.46c0,.54.07.86.21.96.14.1.5.15,1.08.15h1.23v1.74c-.84.14-1.5.21-1.98.21-.9,0-1.56-.22-1.98-.66-.42-.44-.63-1.13-.63-2.06v-11.97h-2.81v-1.74h2.81v-6.14h2.07v6.14h3.23v1.74h-3.23v11.64Z"/>
      <path class="cls-2" d="M108.58,32.08h2.1v2.31c.56-.94,1.1-1.63,1.63-2.06.53-.44,1.12-.66,1.77-.66s1.3.18,1.96.54l-1.08,1.74c-.3-.18-.61-.27-.93-.27-.62,0-1.2.32-1.75.96-.55.64-.95,1.46-1.21,2.47-.26,1.01-.39,2.84-.39,5.49v5.39h-2.1v-15.89Z"/>
      <path class="cls-2" d="M117.41,27.65c0-.46.17-.86.49-1.2.33-.34.73-.51,1.2-.51s.87.17,1.2.5c.33.33.49.73.49,1.2s-.17.87-.49,1.2c-.33.33-.73.49-1.2.49s-.87-.17-1.2-.51c-.33-.34-.49-.73-.49-1.17M118.07,32.08h2.07v15.89h-2.07v-15.89Z"/>
      <polygon class="cls-2" points="129.24 41.33 124.63 47.98 122.2 47.98 128.01 39.59 122.77 32.08 125.23 32.08 129.24 37.83 133.22 32.08 135.67 32.08 130.46 39.56 136.36 47.98 133.88 47.98 129.24 41.33"/>
      <polygon class="cls-2" points="7.97 6.11 0 0 0 4.33 0 10.04 7.97 16.15 16.35 22.57 19.97 19.63 22.71 17.4 7.97 6.11"/>
      <polygon class="cls-1" points="16.26 26.83 7.97 20.48 0 14.37 0 39.29 0 49.33 7.97 43.22 22.81 31.85 16.26 26.83"/>
      <polygon class="cls-2" points="34.64 12.74 25.64 19.64 22.81 21.81 19.08 24.66 25.64 29.68 29.36 26.83 32.19 24.66 34.64 22.78 34.64 26.54 34.64 30.87 34.64 43.58 42.61 49.68 42.61 36.98 42.61 32.65 42.61 16.68 42.61 6.64 34.64 12.74"/>
    </g>
  </g>
</svg>