<?xml version="1.0" encoding="UTF-8"?>
<svg id="Layer_2" data-name="Layer 2" xmlns="http://www.w3.org/2000/svg" viewBox="0 0 515.56 274.07">
  <defs>
    <style>
      .cls-1 {
        fill: none;
      }

      .cls-2 {
        fill: #d2ad2a;
      }

      .cls-3 {
        fill: #2f2f83;
      }
    </style>
  </defs>
  <g id="Layer_1-2" data-name="Layer 1">
    <rect class="cls-1" y=".4" width="515.56" height="273.68"/>
    <g>
      <rect class="cls-1" x="162.11" y="216.17" width="14.35" height="7.77"/>
      <rect class="cls-1" x="278.07" y="82.88" width="17.93" height="7.77"/>
      <rect class="cls-1" x="131.62" y="52.99" width="16.74" height="16.74"/>
      <path class="cls-1" d="M278.07,39.84h17.93v-8.37h-17.04c-1.5,0-.72,7.08-.9,8.37Z"/>
      <path class="cls-1" d="M15.66,249.65h41.24v-57.98H15.66v57.98ZM31.64,203.76c3.01-.51,14.5-.51,17.03.61,4.28,1.91,4.73,8.14.77,10.61-2.9,1.81-16.89,1.7-20.04.29-6.09-2.73-4.24-10.43,2.24-11.52ZM31.64,225.28c3.01-.51,14.5-.51,17.03.61,4.28,1.91,4.73,8.14.77,10.61-2.9,1.81-16.89,1.7-20.04.29-6.09-2.73-4.24-10.43,2.24-11.52Z"/>
      <path class="cls-2" d="M185.32,25.69c-2.21,4.03-2.63,10.54-7.96,11.17-5.65.67-14.64-2.15-16.48,5.64.87,11.76-1.06,24.93,0,36.52.97,10.58,13.87,3.69,19.38,7.52,2.2,1.53,3.51,7.66,5.06,10.48,4,7.3,13.46,13.35,21.92,13.35h35.57V12.34h-36.16c-8.17,0-17.48,6.36-21.32,13.35Z"/>
      <rect class="cls-2" x="254.76" y="21.31" width="11.36" height="80.1"/>
      <path class="cls-2" d="M102.19,201.08c-1.31-3.21.28-8.81,4.03-8.81h41.54c-2.44-4.89-6.94-9.14-12.22-10.79-.79-.25-4.33-1.16-4.82-1.16h-60.97c-.06,0-.9.83-.9.9v78.9c0,.06.83.9.9.9h60.37c7.24,0,19.43-8.9,19.43-16.44v-40.35h-43.93c-.68,0-3.09-2.3-3.43-3.14ZM85.24,204.2c-7.89.92-9.44-10.42-2.19-11.81,8.53-1.63,9.9,10.92,2.19,11.81Z"/>
      <path class="cls-3" d="M148.9,40.98c-.94.8-21.1-.5-24.72.09-1.85.31-4.52,3.42-4.52,5.05v9.26H33.89c-8.42,0-21.62,14.17-25.51,21.12-16.94,30.29,1.31,67.78,36.24,70.36,26.05,1.93,54.44-1.5,80.73,0,7.84-.94,7.77-11.14.6-11.98-25.76-1.33-53.36,1.82-78.91,0-30.71-2.18-43.25-35.33-23.87-58.52,2.26-2.7,9.64-9.02,13.1-9.02h83.38v9.27c0,1.8,3.19,4.74,5.11,5.05,3.53.56,23.2-.69,24.12.1.12.78.28,1.53.47,2.25v-45.45c-.23.8-.39,1.62-.47,2.43ZM148.36,69.73h-16.74v-16.74h16.74v16.74Z"/>
      <path class="cls-3" d="M278.97,51.8h25.11c1.46,0,2.99-3.19,3.89-4.18v-23.91c-1.02-1.27-3.4-4.18-5.08-4.18h-24.81c-.02-3.31.81-7.64-2.77-9.49-.74-.38-2.1-.59-3.78-.7v104.08c4.65-.62,7.83-2.97,6.55-10.21h24.21c2.23,0,4.43-2.54,5.68-4.18v-24.51c-1.13-1.83-4.12-4.18-6.28-4.18h-23.61v-17.63c0-.06.83-.9.9-.9ZM296,82.88v7.77h-17.93v-7.77h17.93ZM278.97,31.47h17.04v8.37h-17.93c.18-1.29-.61-8.37.9-8.37Z"/>
      <path class="cls-3" d="M254.75,9.36c-.63-.62,1.99-7.28-4.75-8.7-23.71,1.4-54.68-7.41-71.75,13.79-1.46,1.81-5.48,9.85-5.98,10.16-.81.5-7.67.47-10.18,1.18-5.73,1.62-11.06,6.88-12.72,12.76v45.45c2.73,10.11,12.78,14.12,22.91,14.12,13.33,32.42,49.34,22.99,77.26,24.08,4.73-.95,5.67-4.43,5.22-8.83,4.75-.68,11.65.73,16.77.05V9.33c-6.03-.38-16.2.6-16.77.03ZM242.8,110.37h-35.57c-8.46,0-17.91-6.05-21.92-13.35-1.55-2.82-2.86-8.95-5.06-10.48-5.51-3.83-18.41,3.06-19.38-7.52-1.06-11.59.87-24.75,0-36.52,1.84-7.78,10.83-4.97,16.48-5.64,5.32-.63,5.74-7.14,7.96-11.17,3.83-6.99,13.14-13.35,21.32-13.35h36.16v98.03ZM266.11,101.41h-11.36V21.31h11.36v80.1Z"/>
      <path class="cls-3" d="M56.91,179.71H11.18c-.24,0-3.74,2-4.19,2.38-2.77,2.28-3.65,6.42-3.9,9.85-1.38,19.09,1.03,39.87.09,59.14-.17,3.51,4.41,10.52,8.01,10.52h45.73c-.2,3.11-.25,6.46,1.24,8.71v-99.32c-1.49,2.26-1.45,5.6-1.24,8.71ZM56.91,249.65H15.66v-57.98h41.24v57.98Z"/>
      <path class="cls-3" d="M167.04,139.49c-.7,3.24,1.5,6.93,6.13,7.35,25.98,1.56,54.39-2.09,80.09.01,40.04,3.27,40.82,62.64.63,66.96l-64.88-.02c.3-3.01-.56-8.62-4.03-9.41-3.57-.81-22.08.68-22.87-.16-.34-5.28-.63-10.13-2.53-15.1-.69-1.8-1.57-3.52-2.6-5.16v73.43c.94-1.51,1.76-3.1,2.43-4.76,2.13-5.33,2.52-11.02,2.7-16.73,9.16-1.75,28.57,5.77,26.9-9.56,19.95-.84,40.83,1.14,60.67,0,55.08-3.17,58.69-68.71,21.85-86.94v.1h-104.49ZM176.45,223.94h-14.35v-7.77h14.35v7.77Z"/>
      <path class="cls-3" d="M171.94,134.85c-2.88.73-4.47,2.59-4.91,4.63h104.49v-.1c-4.96-2.45-10.64-4.06-17.04-4.53-26.64-1.96-55.64,1.54-82.54,0Z"/>
      <path class="cls-3" d="M132.45,168.43c-22.04-2.21-47.42,1.45-69.81-.02-2.22.31-3.62,1.27-4.49,2.59v99.32c.87,1.32,2.28,2.27,4.49,2.59,22.35-1.17,46.58,1.74,68.71.08,10.44-.78,20.16-6.76,25.63-15.59v-73.43c-5.27-8.44-14.63-14.54-24.53-15.53ZM149.56,244.57c0,7.54-12.18,16.44-19.43,16.44h-60.37c-.06,0-.9-.83-.9-.9v-78.9c0-.06.83-.9.9-.9h60.97c.48,0,4.02.91,4.82,1.16,5.28,1.66,9.78,5.91,12.22,10.79h-41.54c-3.75,0-5.34,5.6-4.03,8.81.34.84,2.75,3.14,3.43,3.14h43.93v40.35Z"/>
      <path class="cls-3" d="M149.37,134.8c-.56,0-1.15.06-1.78.2-6.9,1.57-5.17,12.86,2.7,11.72,3.96-.57,5.43-4.15,4.76-7.23h-5.68v-4.68Z"/>
      <path class="cls-3" d="M149.37,134.8v4.68h5.68c-.54-2.51-2.5-4.68-5.68-4.68Z"/>
      <path class="cls-3" d="M83.05,192.39c-7.25,1.39-5.71,12.73,2.19,11.81,7.71-.9,6.34-13.45-2.19-11.81Z"/>
      <path class="cls-3" d="M29.41,215.28c3.16,1.41,17.15,1.52,20.04-.29,3.96-2.47,3.51-8.71-.77-10.61-2.54-1.13-14.02-1.12-17.03-.61-6.47,1.09-8.33,8.79-2.24,11.52Z"/>
      <path class="cls-3" d="M29.41,236.8c3.16,1.41,17.15,1.52,20.04-.29,3.96-2.47,3.51-8.71-.77-10.61-2.54-1.13-14.02-1.12-17.03-.61-6.47,1.09-8.33,8.79-2.24,11.52Z"/>
    </g>
  </g>
</svg>