<?xml version="1.0" encoding="UTF-8"?>
<svg id="Layer_2" data-name="Layer 2" xmlns="http://www.w3.org/2000/svg" viewBox="0 0 515.56 273.68">
  <defs>
    <style>
      .cls-1 {
        fill: none;
      }

      .cls-2 {
        fill: #d2ad2a;
      }

      .cls-3 {
        fill: #2f2f83;
      }
    </style>
  </defs>
  <g id="Layer_1-2" data-name="Layer 1">
    <g>
      <path class="cls-2" d="M212.78,108.18h-14.97V23.34c-3.2,1.39-6.31,4.28-8.4,7.07-1.45,1.93-5.58,9.56-5.58,11.39v126.25h13.97v-44.91h14.97v44.91h59.88V18.35h-59.88v89.82ZM227.75,33.32h14.97v14.97h-14.97v-14.97Z"/>
      <path class="cls-3" d="M242.73,212.97h-14.97c-.88-6.26-3.01-12.07-6-17.46h-18.2c33.32,35.61-23.39,87.9-56.15,49.41-19.19-22.54-6.03-49.74,14.74-58.81v-16.09c-13.24,3.18-24.48,12.59-31.7,23.98-21.22-36.46-76.49-33.84-93.17,5.64-1.93,4.57-2.56,9.26-4.63,13.33h-15.47v-83.84l15.97-2.99v26.95h14.97v-30.94l13.97-2.99v33.93h15.97v-37.93l84.1-18.69v-15.07l-69.12,14.8v-21.46c0-1.35-2.52-9.85-3.22-11.75-3.19-8.72-10.43-18.34-18.1-23.61l-10.6,10.41c16.76,12.68,18.35,30.52,16.85,50.3L2.2,116.16v111.78l31.01.43c8.48,48.24,70.82,61.1,97.24,19.55,27.06,41.46,89.4,28.98,97.31-19.98h29.94v-32.43h-14.97v17.46ZM88.51,257.86c-49.77,3.36-54.5-71.07-5.67-74.55,48.87-3.49,53.59,71.32,5.67,74.55Z"/>
      <path class="cls-3" d="M483.42,172.39c-1.08-25.7,4.78-49.08-14.11-69.72-6.91-7.55-23.16-17.44-33.46-17.44h-43.42v14.97h39.42c16.03,0,36.43,18.17,36.43,34.43v34.43c-4.68-1.98-10.01-.63-14.97-1v-34.43c0-6.6-12.76-18.46-19.46-18.46h-137.5v14.97h134.5c1.92,0,7.49,4.67,7.49,6.49v31.44h-82.84v-21.96h-45.91v52.4c0,18.7,11.6,37.06,28.03,45.83l47.82,28.53v-49.4c-3.89-4.6-29.94-17.12-29.94-21.96v-18.46h67.87c-14.06,16.73-19.47,36.51-11.16,57.57,15.72,39.82,72.49,43.7,93.8,6.61,16.11-28.03,4.49-59.57-22.6-74.82ZM370.48,230.94v14.97c-1.53.35-2.34-.35-3.56-.93-9.3-4.43-32.3-19.93-37.17-28.7-1.06-1.91-4.19-9.16-4.19-10.78v-44.41h14.97v43.42c0,.37,2.29,5.28,2.79,6.2,4.87,8.91,18.73,14.83,27.16,20.25ZM463.78,257.86c-49.61,3.34-54.09-71.15-5.67-74.55,49.46-3.48,53.47,71.33,5.67,74.55Z"/>
      <rect class="cls-3" x="296.35" y="85.22" width="81.11" height="14.97"/>
      <path class="cls-3" d="M287.64,115.16v-14.97h8.72v-14.97h-8.72V3.38h-81.34c-6.85,0-21.2,8.83-25.96,13.96-16.53,17.84-11.84,40.54-12.52,62.84l-5.68,1.22v15.07l5.73-1.27v73.86c-1.95.19-3.86.51-5.73.96v16.09c12.48-5.44,27.7-4.34,40.31,8.25.38.38.74.77,1.1,1.15h18.2c-2.48-4.46-5.54-8.62-8.97-12.48h29.94v12.48h14.97v-10.99c0-.11,1.39-1.5,1.5-1.5h28.44v-51.4c0-.11,1.39-1.5,1.5-1.5h7.22v-14.97h-8.72ZM272.67,168.06h-59.88v-44.91h-14.97v44.91h-13.97V41.81c0-1.83,4.13-9.46,5.58-11.39,2.09-2.79,5.2-5.69,8.4-7.07v84.83h14.97V18.35h59.88v149.71Z"/>
      <rect class="cls-3" x="227.75" y="33.32" width="14.97" height="14.97"/>
      <path class="cls-3" d="M80.78,198.24c-29.45,5.02-20.43,53.12,11.29,44.21,26.16-7.35,18.32-49.26-11.29-44.21ZM81.98,227.5c-6.14-2.03-5.3-12.88,1.79-14.35,12.59-2.61,12.09,18.94-1.79,14.35Z"/>
      <path class="cls-3" d="M456.05,198.24c-26.12,4.45-22.54,46.45,5.49,45.41,31.48-1.17,27.88-51.09-5.49-45.41ZM463.59,227.73c-11.14,3.34-14.03-12.65-4.55-14.59,9.88-2.02,12.53,12.2,4.55,14.59Z"/>
      <path class="cls-3" d="M193.82,206.49c-19.48-25.38-56.68,8.06-34.57,30.08,20.19,20.11,51.99-7.39,34.57-30.08ZM173.6,213.15c11.02-2.29,13.3,15.38,1.78,14.86-9.46-.42-8.99-13.36-1.78-14.86Z"/>
    </g>
    <rect class="cls-1" width="515.56" height="273.68"/>
  </g>
</svg>