<?xml version="1.0" encoding="UTF-8"?>
<svg id="Layer_2" data-name="Layer 2" xmlns="http://www.w3.org/2000/svg" viewBox="0 0 515.56 273.68">
  <defs>
    <style>
      .cls-1 {
        fill: none;
      }

      .cls-2 {
        fill: #d2ad2a;
      }

      .cls-3 {
        fill: #2f2f83;
      }
    </style>
  </defs>
  <g id="Layer_1-2" data-name="Layer 1">
    <circle class="cls-2" cx="204.5" cy="67.14" r="28.11"/>
    <rect class="cls-1" width="515.56" height="273.68"/>
    <g id="hFfBQm">
      <g>
        <path class="cls-3" d="M75.23,1.54c22.1,18.06,12.72,49.49,14.87,74.39,10.76,6.22,21.88,12,32.49,18.48,8.15,4.98,14.4,9.07,19.41,17.56,6.82,11.55,7.55,18.1-7.86,18.99-17.86,1.04-29.82-9.83-44.65-17.45v77.64l10.3-36.44c1.77-3.71,4.79-6.02,8.68-7.16l126.02-.26c5.46.22,9.86,3.9,11.59,9.01l20.22,74.32c.74,5.03-.31,10.07-4.46,13.25-.81.62-4.47,2.73-5.19,2.73h-64.17v14.79h74.21c1.32,0,3.3,2.58,3.96,3.7v3.17c-1.3,2.21-2.7,3.73-5.52,3.72l-261.22-.28c-3.55-1.07-4.85-5.48-2.56-8.39.39-.5,2.49-1.92,2.83-1.92h53.08v-52.55c0-2.31,3.21-4.95,5.55-4.95s5.55,2.64,5.55,4.95v52.55h10.04V106.64c-1.66.06-3.68-2.47-5.02-2.45-.76.01-3.87,2.42-5.03,2.81l.04,53.8c.32,5.06-5.38,8.59-9.28,5.02-.49-.45-1.83-3.01-1.83-3.45v-48.86c-14.74,7.79-26.81,18.49-44.65,17.45-13.35-.78-14.95-5.05-9.13-16.56,5.13-10.16,12.08-14.63,21.4-20.32,10.38-6.34,21.31-11.9,31.74-18.17,2.19-24.93-7.17-56.23,14.9-74.36h3.7ZM78.92,67.56V28.21c0-1.71-4.23-12.9-5.55-12.93-1.31,2.02-2.85,4.63-3.69,6.86-.33.89-1.86,5.58-1.86,6.07v39.35c3.78-.71,7.32-.71,11.09,0ZM68.01,90.62c6.86,6.86,17.91-3.97,10.64-10.91-7.34-7-17.54,4-10.64,10.91ZM133.85,120.37c1.31-1.28-7.5-11.64-9.55-12.36l-33.22-19.32-1.49,4.59-3.8,5.97c15.91,6.72,29.83,21.56,48.06,21.13ZM55.68,89.21c-.5-.37-9.64,4.99-10.91,5.72-8.41,4.79-22.6,11.82-28.39,19.15-.56.7-4,5.82-3.47,6.29,5.85.24,11.58-1.11,16.89-3.44l31.17-17.69c.27-.39-2.82-4.15-3.44-5.27-.83-1.49-1.52-3.08-1.85-4.76ZM132.8,157.88h-21.92c-.38,0-1.36,1.59-1.59,2.11-2.07,4.76-2.75,11.84-4.49,16.9h25.88l2.11-19.01ZM167.13,157.88h-23.24l-2.64,19.01h25.88v-19.01ZM201.46,157.88h-23.77v19.01h26.41l-2.64-19.01ZM240.54,176.89c-1.04-2.4-4.29-19.01-6.07-19.01h-22.45l2.64,19.01h25.88ZM129.1,187.45h-27.46l-4.75,19.01h29.58l2.64-19.01ZM167.13,187.45h-27.46l-2.64,19.01h30.11v-19.01ZM207.79,206.47c-.89-5.79-.97-11.94-2.13-17.68-.12-.6-.22-1-.78-1.34h-27.2v19.01h30.11ZM243.71,187.45h-27.46l2.64,19.01h29.58l-4.75-19.01ZM124.87,217.03h-31.16c-.18,3.82-5.01,14.6-4.13,17.58.15.51.51.9.96,1.17l31.62.19,2.72-18.94ZM167.13,217.03h-30.9c-.56.34-.66.74-.78,1.34-1.16,5.73-1.24,11.89-2.13,17.68h33.8v-19.01ZM209.38,217.03h-31.69v19.01h34.33l-2.64-19.01ZM251.63,217.03h-31.16l2.11,19.02c9.73-.74,20.85.97,30.4.03,1.72-.17,2.85-.28,2.9-2.38.09-4.2-4.2-11.97-4.25-16.66ZM152.34,246.61h-62.85v14.79h62.85v-14.79ZM181.91,246.61h-19.01v14.79h19.01v-14.79Z"/>
        <path class="cls-3" d="M270.65,65.45v3.17c-1.22,1.87-2.08,3.29-4.52,3.66-2.23.34-14.27.31-15.94-.37-4.32-1.74-4.31-8.02,0-9.76,1.67-.68,13.71-.71,15.94-.37,2.44.37,3.3,1.8,4.52,3.66Z"/>
        <path class="cls-3" d="M206.74,1.54c1.87,1.22,3.29,2.08,3.66,4.52.34,2.23.31,14.27-.37,15.94-1.74,4.32-8.02,4.31-9.76,0-.68-1.67-.71-13.71-.37-15.94.37-2.44,1.8-3.3,3.66-4.52h3.17Z"/>
        <path class="cls-3" d="M200.27,36c31.59-3.96,49.01,34.27,25.23,54.81-24.1,20.82-60.47-4.06-49.8-34.48,3.53-10.06,13.88-18.99,24.57-20.33ZM201.86,46.57c-25.51,3.5-21.61,44.24,6.14,41,26.11-3.05,22.17-44.89-6.14-41Z"/>
        <path class="cls-3" d="M161.71,19.06c1.37-.23,3.17.51,4.33,1.25,1.24.8,8.9,8.5,9.76,9.78,3.67,5.49-1.21,11.13-6.94,7.99-1.28-.7-9.6-8.88-10.43-10.17-2.26-3.51-.96-8.16,3.28-8.86Z"/>
        <path class="cls-3" d="M170.69,95.14c5.12-1,8.09,4.08,5.33,8.51-.83,1.34-8.99,9.54-10.29,10.31-5.34,3.16-10.67-2.14-7.5-7.5.83-1.4,7.91-8.44,9.42-9.6.84-.65,2.01-1.52,3.05-1.72Z"/>
        <path class="cls-3" d="M247.29,19.06c4.51-.49,7.16,4.55,4.79,8.54-.74,1.25-8.68,9.2-9.99,10.08-5.43,3.64-11-1.41-7.99-6.94.73-1.33,8.49-9.22,9.87-10.2.86-.6,2.31-1.38,3.32-1.49Z"/>
        <path class="cls-3" d="M237.23,95.13c1.92-.42,3.32.22,4.86,1.25,1.29.86,8.98,8.51,9.78,9.76,3.54,5.5-1.82,11.06-7.29,7.82-1.25-.74-9.2-8.68-10.08-9.99-2.22-3.32-1.37-7.93,2.72-8.84Z"/>
        <path class="cls-3" d="M143.74,61.87c2.03-.41,14.24-.43,16.02.11,5.25,1.62,4.48,9.46-.85,10.3-2.41.38-13.36.35-15.56-.22-5.05-1.31-4.82-9.14.4-10.19Z"/>
        <path class="cls-3" d="M203.95,108.86c3.13-.69,6.13,1.84,6.5,4.9.32,2.73.37,12.16-.13,14.68-1.12,5.55-9.67,5.62-10.45-.92-.3-2.5-.37-12.49.12-14.69.32-1.43,2.53-3.65,3.97-3.97Z"/>
        <path class="cls-3" d="M62.41,180.17c7.17-.67,7.77,10.91.4,10.91-6.64,0-7.32-10.27-.4-10.91Z"/>
      </g>
    </g>
  </g>
</svg>