<?xml version="1.0" encoding="UTF-8"?>
<svg id="Layer_2" data-name="Layer 2" xmlns="http://www.w3.org/2000/svg" viewBox="0 0 314.5 366.67">
  <defs>
    <style>
      .cls-1 {
        fill: #d2ad2a;
      }

      .cls-2 {
        fill: #2f2f83;
      }
    </style>
  </defs>
  <g id="Layer_1-2" data-name="Layer 1">
    <polygon class="cls-2" points="58.83 45.07 0 0 0 31.96 0 74.1 58.83 119.17 120.69 166.58 147.35 144.86 167.57 128.39 58.83 45.07"/>
    <polygon class="cls-1" points="120 198 58.83 151.13 0 106.06 0 289.95 0 364.05 58.83 318.98 168.36 235.06 120 198"/>
    <polygon class="cls-2" points="255.68 94.04 189.21 144.97 168.36 160.95 140.85 182.02 189.21 219.08 216.72 198 237.57 182.02 255.68 168.15 255.68 195.9 255.68 227.85 255.68 321.6 314.5 366.67 314.5 272.92 314.5 240.97 314.5 123.08 314.5 48.97 255.68 94.04"/>
    <polygon class="cls-2" points="58.83 45.07 0 0 0 31.96 0 74.1 58.83 119.17 120.69 166.58 147.35 144.86 167.57 128.39 58.83 45.07"/>
    <polygon class="cls-1" points="120 198 58.83 151.13 0 106.06 0 289.95 0 364.05 58.83 318.98 168.36 235.06 120 198"/>
    <polygon class="cls-2" points="255.68 94.04 189.21 144.97 168.36 160.95 140.85 182.02 189.21 219.08 216.72 198 237.57 182.02 255.68 168.15 255.68 195.9 255.68 227.85 255.68 321.6 314.5 366.67 314.5 272.92 314.5 240.97 314.5 123.08 314.5 48.97 255.68 94.04"/>
  </g>
</svg>