<?xml version="1.0" encoding="UTF-8"?>
<svg id="Layer_2" data-name="Layer 2" xmlns="http://www.w3.org/2000/svg" viewBox="0 0 515.56 274.24">
  <defs>
    <style>
      .cls-1 {
        fill: none;
      }

      .cls-2 {
        fill: #d2ad2a;
      }

      .cls-3 {
        fill: #2f2f83;
      }
    </style>
  </defs>
  <g id="Layer_1-2" data-name="Layer 1">
    <rect class="cls-1" width="515.56" height="273.68"/>
    <g>
      <path class="cls-1" d="M27.25,71.93c64.53-.19,129.36,1.2,193.72-.7,3.89-1.26,7.85-5.29,8.98-9.22,1.62-5.64,1.76-31.71.13-37.25-1.38-4.71-5.7-8.69-10.43-9.79H26.58c-5.01.84-10.28,6.12-11.12,11.12-1.09,6.49-.81,25.92-.19,32.89.62,6.97,5.39,11.4,11.98,12.95ZM197.1,32.5c15.9-1.72,16.63,24.22-1.5,21.36-10.86-1.71-10.63-20.04,1.5-21.36ZM160.69,32.48c15.79-2.28,17.45,24.26-.81,21.37-11.14-1.76-11.04-19.66.81-21.37ZM41.39,36.52l91.81.23c5.64,3.13,5.47,10.14-.14,13.27-29.79,1.19-59.9.16-89.8.53-7.79-.76-8.99-11.32-1.86-14.02Z"/>
      <path class="cls-2" d="M252.49,214.63l-29.3-42.81-28.64,42.81c-.18,1.37.06.88.99,1,5.28.7,12.55-1.34,13.83,6.4v36.73h28.3v-36.73c0-.2,1.4-3.3,1.7-3.69,2.84-3.75,8.36-2.2,12.13-2.71.94-.12,1.17.37.99-1Z"/>
      <path class="cls-3" d="M152.39,215.67l-123.98-.02c-6.18-.27-12.23-5.79-13.05-11.88-.91-6.66-.83-26.16-.06-32.96.78-6.9,6.52-11.55,13.14-12.47l168.43-.04c8.43-1.3,7.72-13.89-.6-14.14-56.98-.48-114.16,1.13-171.02-.82-4.4-1.3-9.01-5.87-9.79-10.43-1.11-6.53-.82-26.53-.19-33.56.54-6.06,4.43-10.21,9.98-12.26,64.83-1.42,130.23-1.41,195.07,0,7.51,2.49,10.08,8.19,10.65,15.63.82,10.83-.92,22.51.27,33.42,3.46,7.25,13.16,5.47,13.88-2.36.75-8.17.89-34.84-1.34-41.85-1.46-4.58-4.67-8.86-8.07-12.19,4.79-6.05,8.64-11.43,9.38-19.46.75-8.13.94-33.43-1.3-40.46-3.52-11.01-14.52-19.09-25.99-19.83L26.6.18C15.05,1.62,5.12,9.3,1.86,20.58-.39,28.37-.47,56.12,1.33,64.16c1.33,5.89,4.71,11.11,9.23,15.01-4.02,3.65-7.19,8.26-8.71,13.51-2.28,7.9-2.18,30.92-1.2,39.53.84,7.34,4.44,14.21,9.91,19.05-4.36,3.79-7.73,8.77-9.11,14.47-1.94,8.03-1.87,36.27.4,44.12,3.41,11.78,13.9,19.37,25.92,20.58l123.34.04c9.55-.58,10.63-12.68,1.27-14.82ZM15.46,26.09c.84-5,6.11-10.28,11.12-11.12h193.08c4.73,1.1,9.05,5.08,10.43,9.79,1.63,5.54,1.48,31.61-.13,37.25-1.13,3.93-5.09,7.96-8.98,9.22-64.37,1.9-129.19.51-193.72.7-6.6-1.55-11.36-5.98-11.98-12.95-.62-6.96-.9-26.39.19-32.89Z"/>
      <path class="cls-3" d="M201.68,273.52c6.87.93,38.53,1.06,44.79-.24.63-.13,1.31-.39,1.97-.75h-49.77c1,.51,2.06.86,3.02.99Z"/>
      <path class="cls-3" d="M174.45,218.78c-2.63,3.53-1.04,8.5,2.4,10.68v-14.28l-2.4,3.6Z"/>
      <path class="cls-3" d="M228.92,153.48c-3.75-3.49-7.96-3.1-11.36.59l-5.43,8.14h22.62l-5.84-8.73Z"/>
      <path class="cls-3" d="M252.5,267.18v-36.73h15.16c4.82,0,8.27-7.8,4.93-11.67l-37.84-56.56h-22.62l-35.28,52.96v14.28c.76.48,1.61.83,2.53.99,4.33.77,10.59-.56,15.16,0v36.73c0,2.29,1.92,4.23,4.12,5.36h49.77c2.1-1.13,4.06-3.24,4.06-5.36ZM239.37,218.34c-.3.4-1.7,3.49-1.7,3.69v36.73h-28.3v-36.73c-1.28-7.74-8.55-5.7-13.83-6.4-.94-.12-1.17.37-.99-1l28.64-42.81,29.3,42.81c.18,1.37-.06.88-.99,1-3.77.5-9.29-1.04-12.13,2.71Z"/>
      <path class="cls-3" d="M42.75,107.97c-8.64,2.18-7.73,13.81,1.19,14.67,29.45-.33,59.1.68,88.43-.52,7.66-3.15,6.06-13.33-2.16-14.32l-87.46.17Z"/>
      <path class="cls-3" d="M42.07,180.07c-7.37,1.49-7.1,13.26.5,14.01h89c8.14-1.67,7.31-13.23-.69-14.18l-88.81.17Z"/>
      <path class="cls-3" d="M170.65,179.89c-9.17-10.6-26.31,3.76-16.29,14.61,9.8,10.61,25.32-4.18,16.29-14.61Z"/>
      <path class="cls-3" d="M190.74,123.07c10.1,9.59,25.06-4.94,15.63-15.29-10.01-11-25.99,5.45-15.63,15.29Z"/>
      <path class="cls-3" d="M154.42,122.66c10.02,11.01,25.97-5.48,15.63-15.29-10.1-9.59-25.06,4.93-15.63,15.29Z"/>
      <path class="cls-3" d="M43.25,50.55c29.91-.37,60.01.67,89.8-.53,5.61-3.13,5.78-10.14.14-13.27l-91.81-.23c-7.13,2.71-5.93,13.27,1.86,14.02Z"/>
      <path class="cls-3" d="M159.89,53.85c18.26,2.89,16.6-23.65.81-21.37-11.85,1.71-11.95,19.61-.81,21.37Z"/>
      <path class="cls-3" d="M195.6,53.85c18.12,2.86,17.4-23.08,1.5-21.36-12.13,1.31-12.35,19.64-1.5,21.36Z"/>
    </g>
  </g>
</svg>