<?xml version="1.0" encoding="UTF-8"?>
<svg id="Layer_2" data-name="Layer 2" xmlns="http://www.w3.org/2000/svg" viewBox="0 0 515.56 274.48">
  <defs>
    <style>
      .cls-1 {
        fill: none;
      }

      .cls-2 {
        fill: #d2ad2a;
      }

      .cls-3 {
        fill: #2f2f83;
      }
    </style>
  </defs>
  <g id="Layer_1-2" data-name="Layer 1">
    <rect class="cls-1" width="515.56" height="273.68"/>
    <g>
      <path class="cls-2" d="M158.87,124.4c-.2-2.17-.75-4.58-2.99-5.47-2.03-.81-15.85-.73-18.78-.45-4.23.4-5.68,2.81-8.45,5.66-2.21,2.27-9.87,10.61-9.87,13.27v43.16h35.83c1.37,0,4.7-4.14,4.23-5.92-1.13-16.15,1.5-34.33.02-50.24Z"/>
      <rect class="cls-1" x="167.31" y="207.08" width="37.24" height="7.33"/>
      <path class="cls-1" d="M158.54,248.3l56.16-.32c3.19-2.16,3.19-5.72,0-7.87l-57.14-.18c-3.89,1.88-3.33,7.81.98,8.38Z"/>
      <path class="cls-1" d="M126.57,223.05c-26.78,2.6-26.64,38.71-.66,42.08h120.04c25.97-2.59,27.08-40.4-2.73-42.27-37.92-2.39-78.47,1.7-116.65.2ZM131.76,256.45c-18.86,6.21-23.77-24.71-4.64-25.52,14.74-.63,19.05,20.78,4.64,25.52ZM243.91,230.93c14.39-.53,18.66,20.42,5.05,25.36-19.11,6.94-25-24.62-5.05-25.36ZM158.72,230.94c16.5-1.98,36.07,1.17,52.9-.18,17.47.17,19.12,24.44,1.61,26.48-17.12,1.99-38.05-1.15-55.54-.19-15.48-2.86-15.05-24.18,1.03-26.11Z"/>
      <path class="cls-1" d="M242.76,248.15c8.21,1.86,7.56-9.96,0-8.22-3.69.85-3.71,7.38,0,8.22Z"/>
      <path class="cls-1" d="M158.85,214.42c-.31-1.6.82-6.68-.93-7.26l-37.11-.13c-5.78-1.11-10.03-6.23-10.51-12.06.02-.23.02-.47.04-.7h-.44v26.05c4.43-3.12,10.27-5.91,14.26-5.91h34.7Z"/>
      <path class="cls-1" d="M125.96,239.92c-4.66,1.39-2.82,10.85,3.97,7.92,4.38-1.89,2.1-9.74-3.97-7.92Z"/>
      <path class="cls-1" d="M240.5,98.29c-4.81.76-4.51,8.93.96,8.36,5.8-.6,4.27-9.18-.96-8.36Z"/>
      <rect class="cls-1" x="180.85" y="137.12" width="71.1" height="6.77"/>
      <path class="cls-2" d="M45.26,139.27c-4.35-2.27-23.95-8.02-29.01-8.79-1.29-.19-3.03-.38-4.26-.02-1.65.49-2.58,3.08-2.66,4.68,1.19,14.45-1.62,31.5.06,45.64.55,4.62,10.02,17.24,13.46,20.95,2.66,2.87,4.69,4.37,8.77,4.77,15.83,1.59,34.14-1.19,50.24.03,2.8-.31,3.95-3.24,1.96-5.4-1.13-1.23-5.59-2.63-7.52-3.76-17.4-10.24-17.02-32.66-23.82-49.53-1.48-3.67-3.66-6.73-7.22-8.58Z"/>
      <path class="cls-3" d="M69.84,74.35c1.79-3.95-1.41-8.06-5.64-6.2-1.28.56-2.5,2.75-3.42,3.91-9.07,11.38-20.88,27.21-29.2,40.01h10.41c8.87-12.64,19.61-24.93,27.86-37.71Z"/>
      <path class="cls-3" d="M110.3,194.98c.48,5.83,4.73,10.95,10.51,12.06l37.11.13c1.75.57.62,5.66.93,7.26h-34.7c-3.98,0-9.83,2.79-14.26,5.91v.24c0,5.84-4.23,10.73-9.78,11.78-7.94,18.14,4.52,39.92,26.27,41.33,39.08,2.54,80.86-1.97,120.23,0,25.72-2.02,37.11-33.96,18.05-51.38-3.64-3.32-12.03-7.88-16.94-7.88h-34.14v-7.33h12.13c2.67,0,4.81-7.71-1.68-8.48l-101.54-.02c-2.34-.37-3.26-2.21-3.6-4.31h-8.55c-.01.23-.02.47-.04.7ZM243.22,222.85c29.81,1.88,28.69,39.68,2.73,42.27h-120.04c-25.98-3.37-26.11-39.48.66-42.08,38.18,1.51,78.73-2.58,116.65-.2ZM167.31,207.08h37.24v7.33h-37.24v-7.33Z"/>
      <path class="cls-3" d="M288.88,169.86c-.49-1.52-1.8-3.82-2.79-5.11-2.73-3.55-15.38-14.88-19.2-17.48-1.87-1.27-4.18-2.44-6.42-2.88,1.49-12.17-2.81-17.54-15.3-16.3.63-3.27-.87-10.46.08-13.19.15-.42,4.11-2.43,5.3-3.73,5.89-6.44,3.43-17.54-4.82-20.59-12.49-4.61-22.99,10.19-14.1,20.31,1.12,1.27,5.09,3.62,5.09,3.94v13.26h-23.13v-38.65c0-8.34-5.19-18.68-11.28-24.27l-59.8-42.88c-.81-7.36-3.59-14.02-10.34-17.87-9.41-5.37-19.23-2.62-26.07,5.18-11.41,13.01-20.56,30.39-31.79,43.81-2.58,4.65,2.54,9.14,6.65,5.52L113.68,13.81c9.27-7.87,20.3-1.85,19.77,10.17-1.08,24.06-12.55,44.1-29.32,60.39-9.45,9.18-19.49,18.53-29.51,27.69h12.02l27.93-25.71c14.32-14.92,24.14-33.92,26.23-54.75l54.73,39.21c3.59,2.85,9.02,10.72,9.02,15.24v42.03h-23.7v9.03h71.1v6.77h-71.1v8.46h77.02c2.3,0,17,13.05,19.47,15.51,2.18,2.17,3.58,4.13,3.94,7.34.41,3.68.49,16.74-.28,20.05-.44,1.9-1.97,3.17-3.93,3.39l-33.76.1c-4.13.93-5.04,7.85.98,8.37,8.66.74,25.26.77,33.9,0,5.44-.48,10.51-5.25,11.41-10.6.76-4.48.58-22.6-.73-26.65ZM241.45,106.65c-5.46.56-5.77-7.6-.96-8.36,5.23-.82,6.76,7.76.96,8.36Z"/>
      <path class="cls-3" d="M157.14,78.74c-.97-1.19-10.57-10.4-11.28-10.72-3.99-1.83-7.72,1.94-5.9,5.9,1.11,2.43,9.37,8.55,11.55,11.58,4.85,6.72.56,13.95-1.82,20.93h9.42c3.29-9.82,5.73-18.22-1.97-27.69Z"/>
      <path class="cls-3" d="M167.31,143.89v-6.77h13.53v-9.03h-13.53c.83-7.53-1.53-15.45-9.58-17.52.46-1.41.93-2.79,1.39-4.15h-9.42c-.37,1.1-.7,2.19-.94,3.27-7.52,1.21-14.5-1.53-21.12,3.25-2.41,1.74-13.11,13.68-14.72,16.31-1.49,2.44-2.32,4.69-2.58,7.58-.22,2.46-.36,4.97-.44,7.5v12.63c.3,12.5,1.2,25.31.44,37.3h8.55c-.25-1.58-.17-3.31-.1-4.68h34.14c4.61,0,10.78-3.89,12.8-8.08.3-.61,1.59-4.28,1.59-4.61v-24.54h13.53v-8.46h-13.53ZM158.85,174.64c.47,1.78-2.86,5.92-4.23,5.92h-35.83v-43.16c0-2.66,7.66-11,9.87-13.27,2.77-2.84,4.22-5.26,8.45-5.66,2.93-.27,16.74-.36,18.78.45,2.24.9,2.79,3.31,2.99,5.47,1.48,15.91-1.15,34.08-.02,50.24Z"/>
      <path class="cls-3" d="M57.86,127.25c-.87.78-5.32,4.93-5.67,5.09-.5.22-.7.26-1.25.18-.95-.13-6.18-2.7-8.03-3.32-2.83-.95-5.82-1.71-8.76-2.25.08-2.81,1.28-4.89,2.7-7.18,1.61-2.59,3.33-5.16,5.13-7.72h-10.41c-.71,1.09-1.4,2.17-2.06,3.21-1.8,2.86-2.91,5.36-3.79,8.64-.83.62-8.87-2.47-11.05-2.6-6.74-.4-11.57,4.26-13.8,10.17v51.91c1,2.6,1.73,4.83,3.15,7.29,5.23,9.03,15.4,23.37,26.45,24.33,16.91,1.47,35.92-1.14,53.06-.02,7.89-1.57,12.09-9.58,8.59-17.06-2.71-5.78-8.96-5.81-13.66-9.48-5.86-4.57-7.19-8.64-9.47-15.35-3.89-11.44-6.18-23.47-11.18-34.49l28.84-26.55h-12.02c-5.63,5.14-11.25,10.23-16.76,15.19ZM76.3,197.38c1.93,1.13,6.38,2.53,7.52,3.76,1.99,2.16.85,5.1-1.96,5.4-16.1-1.23-34.41,1.55-50.24-.03-4.08-.41-6.11-1.9-8.77-4.77-3.44-3.71-12.92-16.33-13.46-20.95-1.68-14.14,1.12-31.18-.06-45.64.08-1.59,1-4.19,2.66-4.68,1.23-.36,2.98-.18,4.26.02,5.06.76,24.66,6.52,29.01,8.79,3.56,1.85,5.74,4.91,7.22,8.58,6.81,16.87,6.42,39.29,23.82,49.53Z"/>
      <path class="cls-3" d="M109.89,156.98v-12.63c-.13,4.14-.1,8.37,0,12.63Z"/>
      <path class="cls-3" d="M109.89,220.57v-.24c-1.88,1.33-3.52,2.72-4.63,3.98-2.23,2.54-3.93,5.25-5.15,8.05,5.55-1.05,9.78-5.94,9.78-11.78Z"/>
      <path class="cls-3" d="M207.78,159.8c-2.07.45-2.91,2.23-3.18,4.17-.61,4.38-.55,16.89-.05,21.39.74,6.59,8.07,6.67,8.98-.05.58-4.28.54-15.9.05-20.26-.39-3.54-1.85-6.1-5.8-5.25Z"/>
      <path class="cls-3" d="M249.09,186.45c.64-4.08.55-18.28.05-22.55-.37-3.13-2.67-4.8-5.81-4.11-1.58.35-2.39,1.48-2.63,3.03-.62,3.94-.6,19.65-.07,23.69.66,4.93,7.69,4.86,8.46-.06Z"/>
      <path class="cls-3" d="M225.26,159.81c-1.23.37-2.43,2.33-2.62,3.58-.64,4.06-.54,18.29-.04,22.55.65,5.59,7.66,5.35,8.46,1.1.61-3.18.51-20.22.04-23.71-.37-2.77-3.09-4.34-5.84-3.52Z"/>
      <path class="cls-3" d="M119.94,35.32c4.66-1.47,3.31-9.55-3.01-8.1-4.88,1.12-2.92,9.97,3.01,8.1Z"/>
      <path class="cls-3" d="M157.69,257.04c17.5-.96,38.43,2.18,55.54.19,17.5-2.03,15.86-26.31-1.61-26.48-16.83,1.35-36.4-1.8-52.9.18-16.09,1.93-16.51,23.24-1.03,26.11ZM157.55,239.92l57.14.18c3.19,2.15,3.19,5.72,0,7.87l-56.16.32c-4.31-.56-4.87-6.5-.98-8.38Z"/>
      <path class="cls-3" d="M248.96,256.29c13.61-4.94,9.34-25.89-5.05-25.36-19.95.74-14.07,32.29,5.05,25.36ZM242.75,239.93c7.57-1.74,8.21,10.08,0,8.22-3.71-.84-3.7-7.37,0-8.22Z"/>
      <path class="cls-3" d="M127.12,230.93c-19.13.81-14.21,31.73,4.64,25.52,14.41-4.74,10.1-26.15-4.64-25.52ZM129.93,247.84c-6.79,2.93-8.63-6.52-3.97-7.92,6.08-1.82,8.36,6.03,3.97,7.92Z"/>
    </g>
  </g>
</svg>